<svg width="56" height="56" viewBox="0 0 56 56" fill="none" xmlns="http://www.w3.org/2000/svg">
<g filter="url(#filter0_d_21026_40520)">
<rect x="7" y="2" width="42" height="42" rx="8" fill="white"/>
<rect x="7.5" y="2.5" width="41" height="41" rx="7.5" stroke="#F3F4F8"/>
</g>
<g clip-path="url(#clip0_21026_40520)">
<path d="M28 22C29.3261 22 30.5979 22.5268 31.5355 23.4645C32.4732 24.4021 33 25.6739 33 27V33H23V27C23 25.6739 23.5268 24.4021 24.4645 23.4645C25.4021 22.5268 26.6739 22 28 22ZM21.288 25.006C21.1289 25.5428 21.0348 26.0968 21.008 26.656L21 27V33H18V28.5C17.9998 27.6376 18.318 26.8054 18.8936 26.1632C19.4692 25.521 20.2617 25.1139 21.119 25.02L21.289 25.006H21.288ZM34.712 25.006C35.6019 25.0602 36.4376 25.452 37.0486 26.1012C37.6596 26.7505 37.9999 27.6084 38 28.5V33H35V27C35 26.307 34.9 25.638 34.712 25.006ZM21.5 19C22.163 19 22.7989 19.2634 23.2678 19.7322C23.7366 20.2011 24 20.837 24 21.5C24 22.163 23.7366 22.7989 23.2678 23.2678C22.7989 23.7366 22.163 24 21.5 24C20.837 24 20.2011 23.7366 19.7322 23.2678C19.2634 22.7989 19 22.163 19 21.5C19 20.837 19.2634 20.2011 19.7322 19.7322C20.2011 19.2634 20.837 19 21.5 19ZM34.5 19C35.163 19 35.7989 19.2634 36.2678 19.7322C36.7366 20.2011 37 20.837 37 21.5C37 22.163 36.7366 22.7989 36.2678 23.2678C35.7989 23.7366 35.163 24 34.5 24C33.837 24 33.2011 23.7366 32.7322 23.2678C32.2634 22.7989 32 22.163 32 21.5C32 20.837 32.2634 20.2011 32.7322 19.7322C33.2011 19.2634 33.837 19 34.5 19ZM28 13C29.0609 13 30.0783 13.4214 30.8284 14.1716C31.5786 14.9217 32 15.9391 32 17C32 18.0609 31.5786 19.0783 30.8284 19.8284C30.0783 20.5786 29.0609 21 28 21C26.9391 21 25.9217 20.5786 25.1716 19.8284C24.4214 19.0783 24 18.0609 24 17C24 15.9391 24.4214 14.9217 25.1716 14.1716C25.9217 13.4214 26.9391 13 28 13Z" fill="black"/>
</g>
<defs>
<filter id="filter0_d_21026_40520" x="0" y="0" width="56" height="56" filterUnits="userSpaceOnUse" color-interpolation-filters="sRGB">
<feFlood flood-opacity="0" result="BackgroundImageFix"/>
<feColorMatrix in="SourceAlpha" type="matrix" values="0 0 0 0 0 0 0 0 0 0 0 0 0 0 0 0 0 0 127 0" result="hardAlpha"/>
<feOffset dy="5"/>
<feGaussianBlur stdDeviation="3.5"/>
<feColorMatrix type="matrix" values="0 0 0 0 0.494118 0 0 0 0 0.556863 0 0 0 0 0.694118 0 0 0 0.1 0"/>
<feBlend mode="normal" in2="BackgroundImageFix" result="effect1_dropShadow_21026_40520"/>
<feBlend mode="normal" in="SourceGraphic" in2="effect1_dropShadow_21026_40520" result="shape"/>
</filter>
<clipPath id="clip0_21026_40520">
<rect width="24" height="24" fill="white" transform="translate(16 11)"/>
</clipPath>
</defs>
</svg>
