<svg width="56" height="56" viewBox="0 0 56 56" fill="none" xmlns="http://www.w3.org/2000/svg">
<g filter="url(#filter0_d_21026_40370)">
<rect x="7" y="2" width="42" height="42" rx="8" fill="white"/>
<rect x="7.5" y="2.5" width="41" height="41" rx="7.5" stroke="#F3F4F8"/>
</g>
<g clip-path="url(#clip0_21026_40370)">
<path d="M16 20.5152V28.4873C16 29.0472 16.2224 29.5842 16.6183 29.9801C17.0143 30.376 17.5512 30.5985 18.1111 30.5985H37.8889C38.4488 30.5985 38.9857 30.376 39.3817 29.9801C39.7776 29.5842 40 29.0472 40 28.4873V20.5152H16ZM37.5383 26.0561H35.1985V23.7239H37.5383V26.0561ZM37.8889 14.5781H18.1111C17.8343 14.5771 17.5599 14.6308 17.3038 14.7361C17.0477 14.8413 16.8149 14.9961 16.6188 15.1915C16.4227 15.387 16.267 15.6192 16.1609 15.8749C16.0547 16.1306 16 16.4048 16 16.6817V18.0154H39.9848V16.6817C39.9848 16.1251 39.7642 15.5912 39.3714 15.1969C38.9785 14.8027 38.4454 14.5802 37.8889 14.5781Z" fill="#231F20"/>
<path d="M34.0372 9H21.9724C21.2669 9 20.5904 9.28025 20.0916 9.77908C19.5928 10.2779 19.3125 10.9545 19.3125 11.6599V18.0162H20.8368V12.6278C20.8368 12.0214 21.0777 11.4399 21.5065 11.0111C21.9353 10.5823 22.5168 10.3414 23.1232 10.3414H33.0311C33.6375 10.3414 34.2191 10.5823 34.6479 11.0111C35.0767 11.4399 35.3176 12.0214 35.3176 12.6278V18.0162H36.6818V11.6751C36.6838 11.3258 36.617 10.9796 36.4852 10.6561C36.3534 10.3326 36.1591 10.0383 35.9135 9.78985C35.668 9.54144 35.3759 9.34383 35.0539 9.20831C34.732 9.07279 34.3865 9.002 34.0372 9ZM36.6971 23.7247V20.516H35.3328V32.9162C35.3328 33.5226 35.0919 34.1041 34.6631 34.5329C34.2344 34.9617 33.6528 35.2026 33.0464 35.2026H23.1385C22.5321 35.2026 21.9505 34.9617 21.5217 34.5329C21.0929 34.1041 20.8521 33.5226 20.8521 32.9162V20.516H19.3278V34.1814C19.3278 34.8868 19.608 35.5633 20.1068 36.0622C20.6056 36.561 21.2822 36.8412 21.9876 36.8412H34.0524C34.7579 36.8412 35.4344 36.561 35.9332 36.0622C36.4321 35.5633 36.7123 34.8868 36.7123 34.1814V26.0568H35.6072V23.7247H36.6971Z" fill="#231F20"/>
</g>
<defs>
<filter id="filter0_d_21026_40370" x="0" y="0" width="56" height="56" filterUnits="userSpaceOnUse" color-interpolation-filters="sRGB">
<feFlood flood-opacity="0" result="BackgroundImageFix"/>
<feColorMatrix in="SourceAlpha" type="matrix" values="0 0 0 0 0 0 0 0 0 0 0 0 0 0 0 0 0 0 127 0" result="hardAlpha"/>
<feOffset dy="5"/>
<feGaussianBlur stdDeviation="3.5"/>
<feColorMatrix type="matrix" values="0 0 0 0 0.494118 0 0 0 0 0.556863 0 0 0 0 0.694118 0 0 0 0.1 0"/>
<feBlend mode="normal" in2="BackgroundImageFix" result="effect1_dropShadow_21026_40370"/>
<feBlend mode="normal" in="SourceGraphic" in2="effect1_dropShadow_21026_40370" result="shape"/>
</filter>
<clipPath id="clip0_21026_40370">
<rect width="24" height="27.8412" fill="white" transform="translate(16 9)"/>
</clipPath>
</defs>
</svg>
