<svg width="2026" height="453" viewBox="0 0 2026 453" fill="none" xmlns="http://www.w3.org/2000/svg">
<path d="M77.8101 1.50956C214.67 -5.96044 315.45 70.2096 429.82 130.96C591.3 216.74 776.96 250.54 958.61 232.52C1063.37 222.13 1156.12 185.84 1253.88 149.2C1418.43 87.5296 1589.19 -0.850442 1769.72 15.2096" stroke="#1D1D1B" stroke-miterlimit="10" stroke-dasharray="8 8"/>
<path d="M47.3401 452.43C172.25 365.88 299.48 282.08 434.24 211.51C570.01 140.41 710.39 89.7697 864.91 130.09C960.17 154.95 1045.11 206.33 1132.41 250.04C1222.74 295.27 1318.69 332.05 1417.62 353.22C1616.16 395.69 1828.07 384.5 2025.48 341.17" stroke="#1D1D1B" stroke-miterlimit="10" stroke-dasharray="8 8"/>
<path d="M1869.75 207.1C1803.81 182.87 1728.66 185.33 1659.4 183.87C1354.76 177.44 1026.92 204.66 739.52 310.96C640.78 347.49 537.35 379.66 430.85 375.73C275.76 370.01 134.77 289.11 1 210.41" stroke="#1D1D1B" stroke-miterlimit="10" stroke-dasharray="8 8"/>
<circle cx="345.268" cy="83.9307" r="6.47217" fill="black"/>
<circle cx="1691.27" cy="183.984" r="6.47217" fill="black"/>
<circle cx="1460.37" cy="67.9863" r="6.47217" fill="black"/>
<circle cx="461.781" cy="375.565" r="6.47217" fill="black"/>
<circle cx="592.268" cy="197.291" r="6.47217" fill="black"/>
<circle cx="1464.84" cy="362.621" r="6.47217" fill="black"/>
</svg>
