<?xml version="1.0" encoding="iso-8859-1"?>
<!-- Uploaded to: SVG Repo, www.svgrepo.com, Generator: SVG Repo Mixer Tools -->
<svg fill="#000000" height="800px" width="800px" version="1.1" id="Layer_1" xmlns="http://www.w3.org/2000/svg" xmlns:xlink="http://www.w3.org/1999/xlink" 
	 viewBox="0 0 512 512" xml:space="preserve">
<g>
	<g>
		<path d="M457.577,245.128c-7.83-16.135-24.392-27.185-43.34-27.185c-9.624,0-18.794,2.826-26.529,7.943
			c-7.737-5.117-16.905-7.943-26.529-7.943c-18.947,0-35.509,11.05-43.34,27.185c-26.492,0.066-48.026,21.638-48.026,48.145
			c0,2.108,0.146,4.193,0.411,6.249h234.955c0.274-2.064,0.424-4.149,0.424-6.249C505.602,266.766,484.068,245.195,457.577,245.128z
			"/>
	</g>
</g>
<g>
	<g>
		<polygon points="351.126,332.914 360.313,367.304 415.102,367.304 424.289,332.914 		"/>
	</g>
</g>
<g>
	<g>
		<polygon points="458.851,332.914 440.743,400.696 334.672,400.696 316.564,332.914 276.136,332.914 297.513,512 477.902,512 
			499.28,332.914 		"/>
	</g>
</g>
<g>
	<g>
		<path d="M371.681,0c-18.412,0-33.391,14.979-33.391,33.391c0,18.412,14.979,33.391,33.391,33.391
			c18.412,0,33.391-14.979,33.391-33.391C405.072,14.979,390.093,0,371.681,0z"/>
	</g>
</g>
<g>
	<g>
		<path d="M439.686,71.014c-18.412,0-33.391,14.979-33.391,33.391c0,18.412,14.979,33.391,33.391,33.391
			c18.412,0,33.391-14.979,33.391-33.391C473.077,85.994,458.098,71.014,439.686,71.014z"/>
	</g>
</g>
<g>
	<g>
		<path d="M347.686,130.66c-18.412,0-33.391,14.979-33.391,33.391c0,18.412,14.979,33.391,33.391,33.391
			c18.412,0,33.391-14.979,33.391-33.391C381.077,145.64,366.098,130.66,347.686,130.66z"/>
	</g>
</g>
<g>
	<g>
		<polygon points="231.447,246.885 231.447,182.27 25.512,182.27 25.512,246.885 6.398,246.885 6.398,280.277 25.512,280.277 
			111.784,280.277 111.784,512 145.175,512 145.175,280.277 231.447,280.277 250.562,280.277 250.562,246.885 		"/>
	</g>
</g>
</svg>