<?xml version="1.0" encoding="iso-8859-1"?>
<!-- Uploaded to: SVG Repo, www.svgrepo.com, Generator: SVG Repo Mixer Tools -->
<svg fill="#000000" height="800px" width="800px" version="1.1" id="Layer_1" xmlns="http://www.w3.org/2000/svg" xmlns:xlink="http://www.w3.org/1999/xlink" 
	 viewBox="0 0 512 512" xml:space="preserve">
<g>
	<g>
		<path d="M197.093,0c-6.794,0-12.301,5.507-12.301,12.301v3.428c0,6.794,5.507,12.301,12.301,12.301
			c6.794,0,12.301-5.507,12.301-12.301v-3.428C209.393,5.507,203.886,0,197.093,0z"/>
	</g>
</g>
<g>
	<g>
		<path d="M197.093,313.616h-12.055v-43.224c0-6.794-5.507-12.301-12.301-12.301h-19.57v-54.565h43.925
			c6.794,0,12.301-5.507,12.301-12.301V139.55V46.788c0-6.794-5.507-12.301-12.301-12.301s-12.301,5.507-12.301,12.301v80.463
			h-31.625V12.301C153.167,5.507,147.66,0,140.866,0c-6.794,0-12.301,5.507-12.301,12.301V127.25H96.929V12.301
			C96.929,5.507,91.422,0,84.628,0S72.328,5.507,72.328,12.301v127.25v51.675c0,6.794,5.507,12.301,12.301,12.301h43.938v54.565
			h-19.583c-6.794,0-12.301,5.507-12.301,12.301v43.224H84.628c-6.794,0-12.301,5.507-12.301,12.301
			c0,6.794,5.507,12.301,12.301,12.301h12.055v161.482c0,6.794,5.507,12.301,12.301,12.301h63.754
			c6.794,0,12.301-5.507,12.301-12.301V338.217h12.055c6.794,0,12.301-5.507,12.301-12.301
			C209.393,319.123,203.886,313.616,197.093,313.616z M96.929,178.924v-27.074h87.863v27.074H96.929z M160.437,487.399h-39.153
			V338.217h39.153V487.399z M160.437,313.616h-39.153v-30.924h39.153V313.616z"/>
	</g>
</g>
<g>
	<g>
		<path d="M439.673,191.225V74c0-3.065-1.145-6.021-3.209-8.286l-56.238-61.7C377.894,1.458,374.594,0,371.134,0
			s-6.76,1.458-9.091,4.015l-56.226,61.701c-2.065,2.265-3.209,5.22-3.209,8.284v117.225c0,6.794,5.507,12.301,12.301,12.301h43.925
			v54.565h-19.57c-6.794,0-12.301,5.507-12.301,12.301v43.224h-12.055c-6.794,0-12.301,5.507-12.301,12.301
			s5.507,12.301,12.301,12.301h12.055v161.482c0,6.794,5.507,12.301,12.301,12.301h63.754c6.794,0,12.301-5.507,12.301-12.301
			V338.217h12.055c6.794,0,12.301-5.507,12.301-12.301c0-6.794-5.507-12.301-12.301-12.301h-12.055v-43.224
			c0-6.794-5.507-12.301-12.301-12.301h-19.583v-54.565h43.938v0C434.166,203.526,439.673,198.019,439.673,191.225z
			 M390.716,487.399h-39.153V338.217h39.153V487.399z M390.716,282.692v30.924h-39.153v-30.924H390.716z M415.071,178.924h-87.863
			V78.764l43.927-48.202l43.937,48.204V178.924z"/>
	</g>
</g>
</svg>