<?xml version="1.0" encoding="iso-8859-1"?>
<!-- Uploaded to: SVG Repo, www.svgrepo.com, Generator: SVG Repo Mixer Tools -->
<svg fill="#000000" version="1.1" id="Layer_1" xmlns="http://www.w3.org/2000/svg" xmlns:xlink="http://www.w3.org/1999/xlink" 
	 viewBox="0 0 512 512" xml:space="preserve">
<g>
	<g>
		<g>
			<rect x="170.666" y="443.733" width="170.667" height="68.267"/>
			<path d="M332.8,352.791v73.873h17.067c4.719,0,8.533,3.823,8.533,8.533v76.8h68.267c4.719,0,8.533-3.814,8.533-8.533
				C435.2,435.471,393.318,376.667,332.8,352.791z"/>
			<path d="M179.2,352.791c-60.518,23.876-102.4,82.679-102.4,150.673c0,4.719,3.814,8.533,8.533,8.533H153.6v-76.8
				c0-4.71,3.814-8.533,8.533-8.533H179.2V352.791z"/>
			<path d="M332.799,110.933h-153.6V179.2h153.6V110.933z M227.899,142.566l-17.067,17.067c-1.664,1.664-3.849,2.5-6.033,2.5
				s-4.369-0.836-6.033-2.5c-3.336-3.336-3.336-8.73,0-12.066l17.067-17.067c3.336-3.337,8.73-3.337,12.066,0
				C231.235,133.837,231.235,139.23,227.899,142.566z M270.566,142.566l-17.067,17.067c-1.664,1.664-3.849,2.5-6.033,2.5
				c-2.185,0-4.369-0.836-6.033-2.5c-3.337-3.336-3.337-8.73,0-12.066l17.067-17.067c3.337-3.337,8.73-3.337,12.066,0
				C273.902,133.837,273.902,139.23,270.566,142.566z M313.232,142.566l-17.067,17.067c-1.664,1.664-3.849,2.5-6.033,2.5
				c-2.185,0-4.369-0.836-6.033-2.5c-3.337-3.336-3.337-8.73,0-12.066l17.067-17.067c3.337-3.337,8.73-3.337,12.066,0
				C316.569,133.837,316.569,139.23,313.232,142.566z"/>
			<path d="M123.6,302.95c3.985,12.749,15.633,21.316,28.988,21.316h60.749v19.302c-5.794,0.964-11.503,2.133-17.067,3.644v79.454
				h119.467v-79.454c-5.572-1.51-11.281-2.68-17.067-3.644v-19.302h60.74c13.355,0,25.003-8.567,28.988-21.316l4.19-13.414
				c22.562-72.183,22.562-148.489,0-220.672l-4.19-13.414c-3.396-10.863-12.373-18.637-23.211-20.71
				C355.681,11.921,305.633,0,256.003,0c-49.638,0-99.686,11.921-109.193,34.739c-10.837,2.074-19.814,9.847-23.211,20.71
				l-4.19,13.414c-22.562,72.183-22.562,148.489,0,220.672L123.6,302.95z M281.603,350.865v16.068c0,14.114-11.486,25.6-25.6,25.6
				c-14.123,0-25.6-11.486-25.6-25.6v-16.068v-26.598h51.2V350.865z M307.203,264.533h-102.4c-4.719,0-8.533-3.823-8.533-8.533
				s3.814-8.533,8.533-8.533h102.4c4.71,0,8.533,3.823,8.533,8.533S311.914,264.533,307.203,264.533z M256.003,17.067
				c43.989,0,73.412,8.875,86.34,17.067H169.655C182.583,25.941,212.006,17.067,256.003,17.067z M162.137,102.4
				c0-4.71,3.814-8.533,8.533-8.533h170.667c4.71,0,8.533,3.823,8.533,8.533v85.333c0,4.71-3.823,8.533-8.533,8.533H170.67
				c-4.719,0-8.533-3.823-8.533-8.533V102.4z"/>
		</g>
	</g>
</g>
</svg>